<svg xmlns="http://www.w3.org/2000/svg" viewBox="0 0 1200.00 1196.00" role="img" aria-label="facebook"><path d="M455 15V414H331V598H455V677C455 779 479 854 527 903C574 952 648 976 748 976C768 976 792 974 821 971C840 969 859 966 878 961V795C867 796 857 796 846 796L809 797C774 797 746 792 725 781C711 774 700 764 691 750C679 730 673 701 673 663V598H869L835 414H673V2C771 14 860 48 941 104C1021 159 1084 230 1129 315C1176 403 1200 497 1200 598C1200 679 1184 757 1153 831C1122 903 1079 967 1024 1022C969 1077 905 1120 834 1151C759 1182 681 1198 600 1198C519 1198 441 1182 366 1151C295 1120 231 1077 176 1022C121 967 78 903 47 831C16 757 0 679 0 598C0 506 20 419 60 336C99 257 153 189 222 133C291 76 368 37 455 15Z" transform="translate(0.00 1198.00) scale(1 -1)" fill="#0866FF"/></svg>