<svg xmlns="http://www.w3.org/2000/svg" viewBox="0 0 1200.00 1093.08" role="img" aria-label="googleads"><path d="M200 54C164 54 131 63 100 81C69 98 45 122 27 153C9 184 0 217 0 254C0 290 9 323 27 354C45 385 69 409 100 427C131 445 164 454 200 454C236 454 269 445 300 427C331 409 355 385 373 354C391 323 400 290 400 254C400 217 391 184 373 153C355 122 331 98 300 81C269 63 236 54 200 54ZM1173 354 773 1046C755 1077 731 1102 700 1120C669 1137 635 1146 600 1147C565 1147 531 1138 500 1120C469 1101 444 1077 427 1046C409 1015 400 982 400 947C400 911 409 877 427 846L827 154C845 123 869 98 900 81C931 63 964 54 1000 54C1035 53 1069 62 1100 81C1131 99 1156 123 1174 154C1191 185 1200 218 1200 254C1200 289 1191 323 1173 354ZM376 958 78 443C115 466 156 478 200 479C242 479 281 468 316 447C351 425 379 396 399 360C418 324 427 285 425 243L586 521L405 834C383 872 373 913 376 958Z" transform="translate(0.00 1147.00) scale(1 -1)" fill="#4285F4"/></svg>