<svg xmlns="http://www.w3.org/2000/svg" viewBox="0 0 1170.00 1200.00" role="img" aria-label="google"><path d="M1176 654H624V490H1016C1005 401 975 332 927 283C892 248 853 221 812 202C757 176 695 163 624 163C545 163 472 183 405 223C340 261 289 313 252 379C213 446 194 520 194 599C194 678 213 752 252 820C289 885 340 937 405 976C472 1015 545 1035 624 1035C685 1035 742 1024 794 1001C839 982 881 954 919 918L1035 1033C982 1085 924 1125 861 1152C789 1184 710 1200 624 1200C543 1200 464 1184 389 1153C316 1122 252 1079 196 1024C139 969 95 905 64 833C31 759 15 681 15 600C15 519 31 441 64 367C95 295 139 231 196 176C252 121 316 78 389 47C464 16 543 0 624 0C712 0 791 14 861 43C928 71 989 113 1043 168C1093 218 1130 280 1154 354C1175 416 1185 482 1185 551C1185 592 1182 626 1176 654Z" transform="translate(-15.00 1200.00) scale(1 -1)" fill="#4285F4"/></svg>