<svg xmlns="http://www.w3.org/2000/svg" viewBox="0 0 1200.00 1200.00" role="img" aria-label="instagram"><defs><linearGradient id="g" x1="0" y1="0" x2="1" y2="1"><stop offset="0" stop-color="#FEDA75"/><stop offset=".48" stop-color="#D62976"/><stop offset="1" stop-color="#4F5BD5"/></linearGradient></defs><path d="M352 1196C296 1193 248 1184 207 1168C166 1152 130 1129 100 1098C69 1067 46 1032 31 991C15 950 6 902 3 846C2 812 1 783 0 760C0 731 0 677 0 599C0 521 0 467 1 438C2 414 3 385 4 351C7 295 16 247 32 206C48 165 71 130 102 100C133 69 168 46 209 31C250 15 298 6 354 3C388 2 417 1 440 0C470 0 524 0 602 0C679 0 733 0 762 1C786 2 815 3 849 4C904 7 952 16 994 32C1035 48 1070 71 1101 102C1131 133 1154 168 1170 209C1185 250 1194 298 1197 354C1198 388 1199 417 1200 440C1200 470 1200 524 1200 602C1200 679 1200 733 1199 762C1198 785 1197 814 1196 848C1193 904 1184 952 1168 994C1152 1035 1129 1070 1099 1101C1068 1131 1033 1154 992 1170C951 1185 902 1194 846 1197C812 1198 783 1199 760 1200C730 1200 676 1200 599 1200C521 1200 467 1200 438 1199C414 1198 385 1197 352 1196ZM359 111C315 113 278 120 247 132C221 142 198 157 179 176C159 195 144 218 133 245C121 276 114 313 112 357C111 390 110 418 109 441C108 470 108 522 108 599C108 676 108 728 109 757C109 780 110 808 111 841C113 885 120 922 132 953C142 979 157 1002 177 1022C196 1041 219 1056 245 1067C276 1079 313 1086 357 1088C390 1089 418 1090 441 1091C469 1091 522 1091 599 1092C676 1092 728 1092 757 1091C780 1091 808 1090 842 1089C886 1087 923 1080 953 1068C979 1058 1002 1043 1022 1024C1042 1004 1057 981 1067 955C1079 924 1086 887 1088 843C1089 810 1090 781 1091 758C1092 730 1092 678 1092 601C1092 524 1092 472 1091 443C1091 420 1090 391 1089 358C1087 315 1080 278 1068 247C1058 221 1043 198 1024 178C1004 158 981 143 955 133C924 121 887 114 843 112C810 111 782 110 759 109C730 108 678 108 602 108C525 108 472 108 443 108C420 109 392 110 359 111ZM848 921C848 906 852 893 860 881C868 869 879 860 892 855C905 849 919 848 934 851C948 854 960 860 971 870C981 880 987 892 991 907C994 921 992 935 987 949C981 962 972 973 960 981C947 989 934 993 919 993C900 993 883 986 869 972C855 957 848 940 848 921ZM292 599C292 544 306 492 334 444C361 397 398 361 445 334C493 306 545 292 601 292C656 292 708 306 756 334C803 361 839 398 866 445C894 493 908 545 908 601C908 656 894 708 866 756C839 803 802 839 755 866C707 894 655 908 600 908C544 908 492 894 444 866C397 839 361 802 334 755C306 707 292 655 292 599ZM400 600C400 636 409 669 427 700C445 731 469 755 500 773C530 791 563 800 600 800C636 800 669 791 700 773C731 755 755 731 773 701C791 670 800 637 800 601C800 564 791 531 773 500C755 469 731 445 701 427C670 409 637 400 600 400C574 400 549 405 524 415C499 425 478 439 459 458C440 477 426 498 416 523C405 548 400 573 400 600Z" transform="translate(0.00 1200.00) scale(1 -1)" fill="url(#g)"/></svg>