<svg xmlns="http://www.w3.org/2000/svg" viewBox="0 0 1200.00 798.00" role="img" aria-label="meta"><path d="M346 999C298 999 252 984 209 955C169 928 133 891 102 843C69 792 44 734 26 670C9 607 0 543 0 478C0 442 4 409 11 379C14 364 19 350 24 337C29 323 35 310 42 298C81 233 141 201 222 201C260 202 294 211 325 230C356 249 387 280 420 324C439 349 457 375 473 401C489 427 516 473 553 540L600 623L717 428C737 395 757 365 777 337C800 305 822 280 841 262C866 239 891 223 917 213C939 205 965 201 994 201C1042 201 1083 215 1116 244C1133 257 1146 273 1157 292C1186 342 1200 405 1200 480C1200 549 1191 615 1174 678C1157 743 1131 801 1096 852C1064 899 1028 936 987 961C946 986 904 999 860 999C808 999 757 977 707 933C679 908 649 874 616 831C583 874 550 908 518 933C490 956 461 973 431 984C404 994 376 999 346 999ZM854 896C882 896 909 887 935 870C960 852 983 827 1003 796C1030 754 1051 703 1066 644C1079 590 1086 534 1086 476C1086 432 1080 398 1067 374C1052 345 1028 331 994 331C979 331 965 335 953 342C940 349 926 362 911 381C884 413 837 486 769 599L738 650C718 684 697 717 675 749L686 766C715 810 743 842 768 862C795 885 824 896 854 896ZM344 868C372 868 398 860 423 844C438 834 456 818 477 796C494 778 514 752 539 717L488 639L451 580C404 505 369 453 346 422C327 396 310 376 295 362C282 349 269 341 256 336C247 333 235 331 222 331C208 331 195 334 183 341C171 348 161 358 153 371C146 382 140 396 136 413C132 431 130 451 130 473C130 528 137 583 152 638C167 692 187 738 213 777C237 814 262 839 289 854C306 863 325 868 344 868Z" transform="translate(0.00 999.00) scale(1 -1)" fill="#0866FF"/></svg>