<svg xmlns="http://www.w3.org/2000/svg" viewBox="0 0 1070.50 1200.00" role="img" aria-label="shopee"><path d="M797 302C803 349 790 388 757 420C724 452 668 481 588 507C549 520 521 536 503 554C484 571 475 592 475 615C477 642 489 664 511 681C533 698 560 707 593 708C646 707 694 692 737 663C742 660 747 660 750 665L770 696C773 701 772 706 767 710C762 713 754 718 744 724C733 729 724 734 717 737C677 754 635 762 592 763C561 762 532 756 506 744C479 731 458 714 442 693C426 672 417 648 415 621C410 563 439 516 501 480C508 476 525 469 552 458C579 447 599 440 613 435C658 422 691 403 713 380C734 356 742 329 737 300C732 274 717 253 692 238C666 222 634 214 596 213C567 214 539 221 511 232C486 242 462 256 440 273L433 278C430 280 428 281 425 281C422 281 420 280 419 277L396 243C394 240 393 238 394 237C394 235 395 233 398 232C418 215 437 202 455 193C499 170 546 158 596 156C632 155 667 161 700 174C727 186 750 203 767 225C784 247 794 273 797 302ZM600 1130C566 1130 535 1120 506 1101C477 1081 454 1054 437 1021C419 988 409 951 408 910H792C791 951 781 988 764 1021C746 1054 723 1081 694 1101C665 1120 634 1130 600 1130ZM993 0H989H199C173 1 151 11 133 30C114 49 104 72 101 100L65 886C64 893 66 898 71 903C75 908 80 910 87 910H336C338 963 351 1012 375 1057C399 1101 431 1136 471 1162C510 1187 553 1200 600 1200C647 1200 690 1187 730 1162C769 1136 801 1101 825 1057C849 1012 862 964 864 911H1112C1119 911 1124 908 1129 904C1134 899 1136 893 1135 886L1096 100C1094 73 1083 49 1063 30C1043 11 1020 1 993 0Z" transform="translate(-64.75 1200.00) scale(1 -1)" fill="#EE4D2D"/></svg>