<svg xmlns="http://www.w3.org/2000/svg" viewBox="0 0 1200.00 1200.00" role="img" aria-label="slack"><path d="M252 568V442C252 419 246 398 235 379C224 360 208 344 189 333C170 322 149 316 126 316C103 316 82 322 63 333C44 344 28 360 17 379C6 398 0 419 0 442C0 465 6 486 17 505C28 524 44 540 63 551C82 562 103 568 126 568H252ZM316 126V442C316 465 322 486 333 505C344 524 360 540 379 551C398 562 419 568 442 568C465 568 486 562 505 551C524 540 540 524 551 505C562 486 568 465 568 442V126C568 103 562 82 551 63C540 44 524 28 505 17C486 6 465 0 442 0C419 0 398 6 379 17C360 28 344 44 333 63C322 82 316 103 316 126ZM568 948H442C419 948 398 954 379 965C360 976 344 992 333 1011C322 1030 316 1051 316 1074C316 1097 322 1118 333 1137C344 1156 360 1172 379 1183C398 1194 419 1200 442 1200C465 1200 486 1194 505 1183C524 1172 540 1156 551 1137C562 1118 568 1097 568 1074V948ZM126 884H442C465 884 486 878 505 867C524 856 540 841 551 822C562 803 568 782 568 759C568 736 562 714 551 695C540 676 524 660 505 649C486 638 465 632 442 632H126C103 632 82 638 63 649C44 660 28 676 17 695C6 714 0 736 0 759C0 782 6 803 17 822C28 841 44 856 63 867C82 878 103 884 126 884ZM948 632V758C948 781 954 803 965 822C976 841 992 856 1011 867C1030 878 1051 884 1074 884C1097 884 1118 878 1137 867C1156 856 1172 841 1183 822C1194 803 1200 782 1200 759C1200 736 1194 714 1183 695C1172 676 1156 660 1137 649C1118 638 1097 632 1074 632H948ZM884 1074V758C884 735 878 714 867 695C856 676 840 660 821 649C802 638 781 632 758 632C735 632 714 638 695 649C676 660 660 676 649 695C638 714 632 735 632 758V1074C632 1097 638 1118 649 1137C660 1156 676 1172 695 1183C714 1194 735 1200 758 1200C781 1200 802 1194 821 1183C840 1172 856 1156 867 1137C878 1118 884 1097 884 1074ZM632 252H758C781 252 802 246 821 235C840 224 856 208 867 189C878 170 884 149 884 126C884 103 878 82 867 63C856 44 840 28 821 17C802 6 781 0 758 0C735 0 714 6 695 17C676 28 660 44 649 63C638 82 632 103 632 126V252ZM1074 316H758C735 316 714 322 695 333C676 344 660 360 649 379C638 398 632 419 632 442C632 465 638 486 649 505C660 524 676 540 695 551C714 562 735 568 758 568H1074C1097 568 1118 562 1137 551C1156 540 1172 524 1183 505C1194 486 1200 465 1200 442C1200 419 1194 398 1183 379C1172 360 1156 344 1137 333C1118 322 1097 316 1074 316Z" transform="translate(0.00 1200.00) scale(1 -1)" fill="#4A154B"/></svg>