<svg xmlns="http://www.w3.org/2000/svg" viewBox="0 0 1200.00 1200.00" role="img" aria-label="telegram"><path d="M600 1200H597C516 1199 439 1183 365 1152C293 1121 229 1078 175 1023C120 968 77 904 47 833C16 759 0 681 0 600C0 519 16 441 47 366C78 295 121 231 176 176C231 121 295 78 366 47C441 16 519 0 600 0C681 0 759 16 834 47C905 78 969 121 1024 176C1079 231 1122 295 1153 366C1184 441 1200 519 1200 600C1200 681 1184 759 1153 834C1122 905 1079 969 1024 1024C969 1079 905 1122 834 1153C759 1184 681 1200 600 1200ZM845 839C855 839 863 837 868 832C873 827 876 822 877 816C878 807 879 799 878 792C874 749 864 679 848 581C835 499 822 426 810 361C806 340 800 324 792 314C786 305 778 300 769 299C757 298 744 300 731 307C723 311 711 319 694 330L674 344C656 356 633 372 604 391L540 434C524 445 514 454 511 463C508 472 509 481 515 490C519 495 527 504 539 516L553 530L580 555C671 640 717 685 718 691C719 696 719 699 716 702C713 704 709 704 704 703C698 702 613 646 450 536C426 519 405 511 386 512C367 512 336 519 292 534L279 538C260 544 247 549 240 552C230 558 226 565 227 573C228 584 243 595 272 606C448 683 564 734 621 757C703 791 758 813 787 824C814 833 834 838 845 839Z" transform="translate(0.00 1200.00) scale(1 -1)" fill="#26A5E4"/></svg>