<svg xmlns="http://www.w3.org/2000/svg" viewBox="0 0 1052.00 1200.00" role="img" aria-label="threads"><path d="M610 0H609C429 1 293 60 200 175C117 278 75 420 74 599V600C75 780 117 921 200 1024C293 1140 429 1199 609 1200H610C748 1199 862 1164 951 1095C1035 1030 1093 939 1126 822L1024 793C997 892 948 967 879 1018C809 1068 719 1093 609 1094C463 1093 354 1047 282 958C215 875 180 755 179 600C180 445 215 325 282 242C354 152 463 107 609 106C675 107 731 115 777 131C822 147 863 173 899 208C925 233 944 262 956 293C966 320 971 348 970 377C969 402 963 426 954 448C939 483 911 513 872 536C863 468 841 413 808 372C763 317 701 287 621 282C591 281 562 284 534 291C506 298 481 308 458 323C432 340 411 361 396 387C381 412 372 440 371 470C369 500 374 528 386 555C397 582 414 605 437 624C459 643 485 659 516 670C547 681 580 687 617 689C667 692 717 690 767 682C761 719 749 749 730 770C705 799 665 814 612 815H611C585 815 561 811 540 802C513 791 491 774 475 749L387 808C411 844 442 872 481 891C520 910 563 920 611 920H613C692 920 755 896 801 850C847 803 872 736 877 651L893 644C930 627 962 605 989 579C1016 553 1036 524 1051 491C1066 458 1074 422 1075 384C1078 340 1071 298 1056 258C1039 211 1011 170 974 133C927 88 875 54 817 33C758 12 689 1 610 0ZM659 585C647 585 635 584 622 583C577 581 541 570 514 551C487 531 475 506 477 476C478 456 485 439 499 425C512 412 529 402 550 396C571 389 593 387 616 388C656 390 688 402 711 423C744 453 764 503 770 573C733 581 696 585 659 585Z" transform="translate(-74.00 1200.00) scale(1 -1)" fill="#111111"/></svg>