<svg xmlns="http://www.w3.org/2000/svg" viewBox="-28 -28 1098.41 1255.50" role="img" aria-label="tiktok"><path d="M626 1199C653 1200 692 1200 744 1200H822C824 1160 832 1122 846 1087C861 1050 882 1018 909 992C936 965 968 944 1007 929C1041 916 1079 907 1121 902V701C1044 704 974 720 911 749C890 759 863 775 830 796V631C830 510 830 419 829 358C827 323 820 288 809 255C798 221 782 190 762 161C729 113 686 75 633 46C580 17 524 2 466 1C431 -1 396 3 361 12C326 21 293 34 262 52C211 82 170 122 137 174C104 225 85 279 80 338C79 367 78 391 79 412C84 459 97 505 120 549C143 592 172 629 208 660C250 697 298 723 353 738C408 753 462 756 516 746C516 718 516 676 515 619C514 577 514 545 514 524C489 532 463 535 436 532C409 529 384 520 363 506C347 495 333 482 322 468C310 453 301 436 295 418C291 409 288 398 287 385C287 377 287 365 287 350L288 337C292 310 303 286 320 263C337 240 358 222 384 209C409 196 436 191 463 194C490 194 517 201 542 216C567 231 586 250 601 275L603 277C609 288 613 296 616 301C619 310 621 319 622 328C624 371 625 437 625 525V822C625 989 625 1115 626 1199Z" transform="translate(-78.59 1200.00) scale(1 -1) translate(-18 12)" fill="#25F4EE" opacity=".95"/><path d="M626 1199C653 1200 692 1200 744 1200H822C824 1160 832 1122 846 1087C861 1050 882 1018 909 992C936 965 968 944 1007 929C1041 916 1079 907 1121 902V701C1044 704 974 720 911 749C890 759 863 775 830 796V631C830 510 830 419 829 358C827 323 820 288 809 255C798 221 782 190 762 161C729 113 686 75 633 46C580 17 524 2 466 1C431 -1 396 3 361 12C326 21 293 34 262 52C211 82 170 122 137 174C104 225 85 279 80 338C79 367 78 391 79 412C84 459 97 505 120 549C143 592 172 629 208 660C250 697 298 723 353 738C408 753 462 756 516 746C516 718 516 676 515 619C514 577 514 545 514 524C489 532 463 535 436 532C409 529 384 520 363 506C347 495 333 482 322 468C310 453 301 436 295 418C291 409 288 398 287 385C287 377 287 365 287 350L288 337C292 310 303 286 320 263C337 240 358 222 384 209C409 196 436 191 463 194C490 194 517 201 542 216C567 231 586 250 601 275L603 277C609 288 613 296 616 301C619 310 621 319 622 328C624 371 625 437 625 525V822C625 989 625 1115 626 1199Z" transform="translate(-78.59 1200.00) scale(1 -1) translate(18 -10)" fill="#FE2C55" opacity=".95"/><path d="M626 1199C653 1200 692 1200 744 1200H822C824 1160 832 1122 846 1087C861 1050 882 1018 909 992C936 965 968 944 1007 929C1041 916 1079 907 1121 902V701C1044 704 974 720 911 749C890 759 863 775 830 796V631C830 510 830 419 829 358C827 323 820 288 809 255C798 221 782 190 762 161C729 113 686 75 633 46C580 17 524 2 466 1C431 -1 396 3 361 12C326 21 293 34 262 52C211 82 170 122 137 174C104 225 85 279 80 338C79 367 78 391 79 412C84 459 97 505 120 549C143 592 172 629 208 660C250 697 298 723 353 738C408 753 462 756 516 746C516 718 516 676 515 619C514 577 514 545 514 524C489 532 463 535 436 532C409 529 384 520 363 506C347 495 333 482 322 468C310 453 301 436 295 418C291 409 288 398 287 385C287 377 287 365 287 350L288 337C292 310 303 286 320 263C337 240 358 222 384 209C409 196 436 191 463 194C490 194 517 201 542 216C567 231 586 250 601 275L603 277C609 288 613 296 616 301C619 310 621 319 622 328C624 371 625 437 625 525V822C625 989 625 1115 626 1199Z" transform="translate(-78.59 1200.00) scale(1 -1)" fill="#111111"/></svg>