<svg xmlns="http://www.w3.org/2000/svg" viewBox="0 0 1200.00 846.00" role="img" aria-label="youtube"><path d="M1175 891C1168 917 1156 940 1137 959C1118 978 1095 991 1069 998C1041 1005 987 1011 906 1015C848 1018 780 1021 701 1022L600 1023L499 1022C420 1021 352 1018 294 1015C213 1011 159 1005 131 998C105 991 83 978 64 959C45 940 32 917 25 891C18 863 12 824 7 773C4 738 2 698 1 654L0 600L1 546C2 502 4 462 7 427C12 376 18 337 25 309C32 283 45 261 64 242C83 223 105 209 131 202C159 195 213 189 294 185C352 182 420 179 499 178L600 177L701 178C780 179 848 182 906 185C987 189 1041 195 1069 203C1095 210 1118 223 1137 242C1156 261 1168 283 1175 309C1186 348 1193 409 1197 490C1199 531 1200 567 1200 600L1199 654C1198 698 1196 738 1193 773C1188 824 1182 863 1175 891ZM791 600 477 422V778L791 600Z" transform="translate(0.00 1023.00) scale(1 -1)" fill="#FF0000"/></svg>