<svg xmlns="http://www.w3.org/2000/svg" viewBox="0 0 1200.00 422.00" role="img" aria-label="zalo"><path d="M624 686H625V709H692V393H653C645 393 638 396 633 402C628 407 625 414 625 421H624C595 400 563 390 528 390C498 390 471 397 446 412C421 427 401 447 386 472C371 497 363 524 363 554C363 583 371 611 386 636C401 661 421 681 446 696C471 711 498 718 528 718C563 718 595 707 624 686ZM10 811H346V800C346 790 345 781 343 773C341 764 337 756 331 747L317 731L101 460H346V422C346 414 343 407 338 402C332 396 325 393 317 393H0V411C0 421 1 430 4 437C5 442 8 447 12 453L243 739H10V811ZM822 393H774C767 393 762 395 757 400C752 405 750 410 749 417V811H822V393ZM1035 720C1065 720 1093 713 1118 698C1143 683 1163 663 1178 638C1193 613 1200 585 1200 555C1200 525 1193 497 1178 472C1163 447 1143 427 1118 412C1093 397 1065 389 1035 389C1005 389 977 397 952 412C927 427 906 447 892 472C877 497 869 525 869 555C869 585 876 613 892 638C907 663 927 683 952 698C977 713 1005 720 1035 720ZM528 457C545 457 561 461 576 470C591 479 602 491 611 506C620 521 624 537 624 554C624 571 620 587 611 602C602 617 591 628 576 637C561 646 545 650 528 650C510 650 494 646 479 637C464 628 453 617 444 602C435 587 431 571 431 554C431 537 435 521 444 506C453 491 464 479 479 470C494 461 510 457 528 457ZM1035 458C1052 458 1069 462 1084 471C1099 480 1110 491 1119 506C1128 521 1132 537 1132 555C1132 572 1128 589 1119 604C1110 619 1099 630 1084 639C1069 648 1052 652 1035 652C1017 652 1001 648 986 639C971 630 960 619 951 604C942 589 937 572 937 555C937 537 942 521 951 506C960 491 971 480 986 471C1001 462 1017 458 1035 458Z" transform="translate(0.00 811.00) scale(1 -1)" fill="#0068FF"/></svg>